<svg viewBox="0 0 800 500" preserveAspectRatio="none" xmlns="http://www.w3.org/2000/svg" xmlns:xlink="http://www.w3.org/1999/xlink" width="100%" id="blobSvg">
  <g transform="translate(280, 38)">
    <defs>
      <linearGradient id="gradient" x1="0%" y1="0%" x2="0%" y2="100%">
        <stop offset="0%" style="stop-color: rgb(244, 63, 94);"></stop>
        <stop offset="100%" style="stop-color: rgb(249, 115, 22);"></stop>
      </linearGradient>
    </defs>
    <path class="blob" d="M423,290.5Q445,331,431,374Q417,417,365,409.5Q313,402,281.5,407Q250,412,215.5,414.5Q181,417,156.5,392.5Q132,368,78.5,355.5Q25,343,54,296.5Q83,250,63.5,207.5Q44,165,89.5,150Q135,135,160.5,115Q186,95,218,62Q250,29,285,54.5Q320,80,361,89Q402,98,420,135Q438,172,419.5,211Q401,250,423,290.5Z" fill="none" stroke-width="7px" stroke="url(#gradient)"></path>
  </g>
  <g transform="translate(-61, 172)">
    <defs>
      <linearGradient id="gradient" x1="0%" y1="0%" x2="0%" y2="100%">
        <stop offset="0%" style="stop-color: rgb(244, 63, 94);"></stop>
        <stop offset="100%" style="stop-color: rgb(249, 115, 22);"></stop>
      </linearGradient>
    </defs>
    <path class="blob" d="M423,290.5Q445,331,431,374Q417,417,365,409.5Q313,402,281.5,407Q250,412,215.5,414.5Q181,417,156.5,392.5Q132,368,78.5,355.5Q25,343,54,296.5Q83,250,63.5,207.5Q44,165,89.5,150Q135,135,160.5,115Q186,95,218,62Q250,29,285,54.5Q320,80,361,89Q402,98,420,135Q438,172,419.5,211Q401,250,423,290.5Z" fill="none" stroke-width="7px" stroke="url(#gradient)"></path>
  </g>
  <g transform="translate(305, 133)">
    <defs>
      <linearGradient id="gradient" x1="0%" y1="0%" x2="0%" y2="100%">
        <stop offset="0%" style="stop-color: rgb(244, 63, 94);"></stop>
        <stop offset="100%" style="stop-color: rgb(249, 115, 22);"></stop>
      </linearGradient>
    </defs>
    <path class="blob" d="M423,290.5Q445,331,431,374Q417,417,365,409.5Q313,402,281.5,407Q250,412,215.5,414.5Q181,417,156.5,392.5Q132,368,78.5,355.5Q25,343,54,296.5Q83,250,63.5,207.5Q44,165,89.5,150Q135,135,160.5,115Q186,95,218,62Q250,29,285,54.5Q320,80,361,89Q402,98,420,135Q438,172,419.5,211Q401,250,423,290.5Z" fill="none" stroke-width="7px" stroke="url(#gradient)"></path>
  </g>
  <g transform="translate(28, -58)">
    <defs>
      <linearGradient id="gradient" x1="0%" y1="0%" x2="0%" y2="100%">
        <stop offset="0%" style="stop-color: rgb(244, 63, 94);"></stop>
        <stop offset="100%" style="stop-color: rgb(249, 115, 22);"></stop>
      </linearGradient>
    </defs>
    <path class="blob" d="M423,290.5Q445,331,431,374Q417,417,365,409.5Q313,402,281.5,407Q250,412,215.5,414.5Q181,417,156.5,392.5Q132,368,78.5,355.5Q25,343,54,296.5Q83,250,63.5,207.5Q44,165,89.5,150Q135,135,160.5,115Q186,95,218,62Q250,29,285,54.5Q320,80,361,89Q402,98,420,135Q438,172,419.5,211Q401,250,423,290.5Z" fill="none" stroke-width="7px" stroke="url(#gradient)"></path>
  </g>
  <g transform="translate(-193, -147)">
    <defs>
      <linearGradient id="gradient" x1="0%" y1="0%" x2="0%" y2="100%">
        <stop offset="0%" style="stop-color: rgb(244, 63, 94);"></stop>
        <stop offset="100%" style="stop-color: rgb(249, 115, 22);"></stop>
      </linearGradient>
    </defs>
    <path class="blob" d="M423,290.5Q445,331,431,374Q417,417,365,409.5Q313,402,281.5,407Q250,412,215.5,414.5Q181,417,156.5,392.5Q132,368,78.5,355.5Q25,343,54,296.5Q83,250,63.5,207.5Q44,165,89.5,150Q135,135,160.5,115Q186,95,218,62Q250,29,285,54.5Q320,80,361,89Q402,98,420,135Q438,172,419.5,211Q401,250,423,290.5Z" fill="none" stroke-width="7px" stroke="url(#gradient)"></path>
  </g>
</svg>